<svg xmlns="http://www.w3.org/2000/svg" width="32" height="32" viewBox="0 0 32 32">
  <rect width="32" height="32" rx="4" fill="#171717"/>
  <rect x="12" y="6" width="3" height="3" fill="#d97706"/>
  <rect x="15" y="6" width="3" height="3" fill="#d97706"/>
  <rect x="18" y="6" width="3" height="3" fill="#d97706"/>
  <rect x="9" y="9" width="3" height="3" fill="#d97706"/>
  <rect x="21" y="9" width="3" height="3" fill="#d97706"/>
  <rect x="9" y="12" width="3" height="3" fill="#d97706"/>
  <rect x="15" y="12" width="3" height="3" fill="#d97706"/>
  <rect x="21" y="12" width="3" height="3" fill="#d97706"/>
  <rect x="9" y="15" width="3" height="3" fill="#d97706"/>
  <rect x="15" y="15" width="3" height="3" fill="#d97706"/>
  <rect x="18" y="15" width="3" height="3" fill="#d97706"/>
  <rect x="21" y="15" width="3" height="3" fill="#d97706"/>
  <rect x="9" y="18" width="3" height="3" fill="#d97706"/>
  <rect x="15" y="18" width="3" height="3" fill="#d97706"/>
  <rect x="18" y="18" width="3" height="3" fill="#d97706"/>
  <rect x="9" y="21" width="3" height="3" fill="#d97706"/>
  <rect x="12" y="24" width="3" height="3" fill="#d97706"/>
  <rect x="15" y="24" width="3" height="3" fill="#d97706"/>
  <rect x="18" y="24" width="3" height="3" fill="#d97706"/>
</svg>
