<svg xmlns="http://www.w3.org/2000/svg" width="32" height="32" viewBox="0 0 32 32">
  <rect width="32" height="32" rx="4" fill="#171717"/>
  <rect x="10" y="4" width="3" height="3" fill="#d97706"/>
  <rect x="13" y="4" width="3" height="3" fill="#d97706"/>
  <rect x="16" y="4" width="3" height="3" fill="#d97706"/>
  <rect x="7" y="7" width="3" height="3" fill="#d97706"/>
  <rect x="19" y="7" width="3" height="3" fill="#d97706"/>
  <rect x="7" y="10" width="3" height="3" fill="#d97706"/>
  <rect x="13" y="10" width="3" height="3" fill="#d97706"/>
  <rect x="19" y="10" width="3" height="3" fill="#d97706"/>
  <rect x="7" y="13" width="3" height="3" fill="#d97706"/>
  <rect x="13" y="13" width="3" height="3" fill="#d97706"/>
  <rect x="16" y="13" width="3" height="3" fill="#d97706"/>
  <rect x="19" y="13" width="3" height="3" fill="#d97706"/>
  <rect x="7" y="16" width="3" height="3" fill="#d97706"/>
  <rect x="13" y="16" width="3" height="3" fill="#d97706"/>
  <rect x="16" y="16" width="3" height="3" fill="#d97706"/>
  <rect x="7" y="19" width="3" height="3" fill="#d97706"/>
  <rect x="10" y="22" width="3" height="3" fill="#d97706"/>
  <rect x="13" y="22" width="3" height="3" fill="#d97706"/>
  <rect x="16" y="22" width="3" height="3" fill="#d97706"/>
</svg>